<svg id="Capa_1" data-name="Capa 1" xmlns="http://www.w3.org/2000/svg" xmlns:xlink="http://www.w3.org/1999/xlink" viewBox="0 0 40.22 40"><defs><style>.cls-1{opacity:0.85;fill:url(#Degradado_sin_nombre_3);}</style><radialGradient id="Degradado_sin_nombre_3" cx="24.18" cy="23.21" r="21.7" gradientUnits="userSpaceOnUse"><stop offset="0" stop-color="#fff"/><stop offset="0.44" stop-color="#48137d"/><stop offset="0.83" stop-color="#9b009b"/></radialGradient></defs><title>5</title><path class="cls-1" d="M4.07,21.8c.7,7.49,5.6,14.45,12.87,17a16.27,16.27,0,0,0,18-4.9c5.38-6.17,4.11-16.76-3.63-20.08a9.76,9.76,0,0,0-10.28,1.58,10,10,0,0,1,13.12,1.9,11.38,11.38,0,0,1,2.53,9.64A13.63,13.63,0,0,1,27.22,37.2C18.84,39.73,10,34.51,7.29,26.45c-3-9.33,2.38-19.76,11.39-23.24-10.28,4.11-15.81,17.23-9,27a15.46,15.46,0,0,0,17.55,6.17c5.21-1.9,9-7.27,8.22-13C35.91,31,28.32,37.2,20.73,35.78,12.67,34.35,7.61,26.29,9,18.38A17.23,17.23,0,0,1,27.37,4.47,20.57,20.57,0,0,1,44.29,17.75a19.15,19.15,0,0,0-23.4-12c-8.54,2.68-13.44,12.64-10,20.87a13.66,13.66,0,0,0,10.91,7.9A13.47,13.47,0,0,1,11.25,18.86a14.24,14.24,0,0,1,5.21-8.7,16.1,16.1,0,0,1,23.4,4,18.29,18.29,0,0,1-.31,21.18,19.19,19.19,0,0,1-11.07,7.91A20.05,20.05,0,0,0,42.71,26.29a17.59,17.59,0,0,0-6-15,14.94,14.94,0,0,0-18-1.26C12.51,14,10.61,22.34,15,28a12.43,12.43,0,0,1,2.85-15.81c4.74-3.8,10.91-3.8,16-1a15.17,15.17,0,0,1,7,15.49,16.71,16.71,0,0,1-6.64,11.39c-7.11,5.53-17.07,4.9-23.87-.32,8.85,7,22.92,4.74,28.3-5.22a15.69,15.69,0,0,0,1.26-12.49c-2-6.79-9.32-11.54-16.28-9.48a11,11,0,0,0-7.91,12.17,10.91,10.91,0,0,1,6.49-10.43,11.76,11.76,0,0,1,8.69-.16,13.8,13.8,0,0,1,8.07,14.23C38,34,30.85,39.57,23.42,39.89c-9.33.31-17.71-7.12-19-16.24C4.13,22.42,4.07,21.8,4.07,21.8Z" transform="translate(-4.07 -3.21)"/></svg>